<svg xmlns="http://www.w3.org/2000/svg" width="180" height="220" viewBox="0 0 180 220">
<defs>
<linearGradient id="metal" x1="0" y1="0" x2="1" y2="1"><stop offset="0" stop-color="#e9f4ff"/><stop offset="0.45" stop-color="#8bb8ff"/><stop offset="1" stop-color="#24344f"/></linearGradient>
<linearGradient id="metal2" x1="0" y1="0" x2="0" y2="1"><stop offset="0" stop-color="#8bb8ff"/><stop offset="1" stop-color="#24344f"/></linearGradient>
<filter id="blur"><feGaussianBlur stdDeviation="4"/></filter>
</defs>
<rect width="180" height="220" fill="none"/>
<ellipse cx="90" cy="132" rx="66" ry="34" fill="#000" opacity="0.28" filter="url(#blur)"/>
<rect x="25" y="115" width="8" height="72" rx="4" fill="#24344f" stroke="#00b8ff" stroke-width="1.4"/><rect x="147" y="115" width="8" height="72" rx="4" fill="#24344f" stroke="#00b8ff" stroke-width="1.4"/><circle cx="29" cy="191" r="5" fill="#38e8ff"/><circle cx="151" cy="191" r="5" fill="#38e8ff"/><rect x="35" y="152" width="18" height="62" rx="8" fill="#24344f" stroke="#8bb8ff" stroke-width="2"/><rect x="127" y="152" width="18" height="62" rx="8" fill="#24344f" stroke="#8bb8ff" stroke-width="2"/><path d="M44 214 l-8 26 h16z" fill="#38e8ff" opacity="0.9"/><path d="M136 214 l-8 26 h16z" fill="#38e8ff" opacity="0.9"/>
<path d="M90 31 L66 145 L80 180 L90 196 L100 180 L114 145 Z" fill="url(#metal)" stroke="#e9f4ff" stroke-width="2.3"/>
<path d="M76 108 L35 154 L60 172 L84 136 Z" fill="url(#metal2)" stroke="#00b8ff" stroke-width="2"/>
<path d="M104 108 L145 154 L120 172 L96 136 Z" fill="url(#metal2)" stroke="#00b8ff" stroke-width="2"/>
<path d="M72 118 L3 168 L60 148 Z" fill="url(#metal2)" stroke="#00b8ff" stroke-width="1.7"/><path d="M108 118 L177 168 L120 148 Z" fill="url(#metal2)" stroke="#00b8ff" stroke-width="1.7"/>
<path d="M79 74 C68 90 68 108 82 118 L98 118 C112 108 112 90 101 74 Z" fill="#05203f" stroke="#38e8ff" stroke-width="2"/>
<path d="M66 170 L42 206 L75 188 Z" fill="#ff375b" opacity="0.95"/>
<path d="M114 170 L138 206 L105 188 Z" fill="#ff375b" opacity="0.95"/>
<path d="M79 196 l-7 31 h14z" fill="#38e8ff" opacity="0.9"/><path d="M101 196 l-7 31 h14z" fill="#38e8ff" opacity="0.9"/>
<text x="90" y="18" text-anchor="middle" font-family="Arial" font-size="12" font-weight="900" fill="#e9f4ff">FALCON Lv.3</text>
<polygon points="20,203 23,211 31,211 25,216 28,224 20,219 12,224 15,216 9,211 17,211" fill="#ffd32a"/><polygon points="38,203 41,211 49,211 43,216 46,224 38,219 30,224 33,216 9,211 35,211" fill="#ffd32a"/><polygon points="56,203 59,211 67,211 61,216 64,224 56,219 48,224 51,216 9,211 53,211" fill="#ffd32a"/>
</svg>