<svg xmlns="http://www.w3.org/2000/svg" width="180" height="220" viewBox="0 0 180 220">
<defs>
<linearGradient id="metal" x1="0" y1="0" x2="1" y2="1"><stop offset="0" stop-color="#f1f1f1"/><stop offset="0.45" stop-color="#a9adb6"/><stop offset="1" stop-color="#2b2428"/></linearGradient>
<linearGradient id="metal2" x1="0" y1="0" x2="0" y2="1"><stop offset="0" stop-color="#a9adb6"/><stop offset="1" stop-color="#2b2428"/></linearGradient>
<filter id="blur"><feGaussianBlur stdDeviation="4"/></filter>
</defs>
<rect width="180" height="220" fill="none"/>
<ellipse cx="90" cy="132" rx="66" ry="34" fill="#000" opacity="0.28" filter="url(#blur)"/>
<rect x="32" y="115" width="8" height="72" rx="4" fill="#2b2428" stroke="#ff2b2b" stroke-width="1.4"/><rect x="140" y="115" width="8" height="72" rx="4" fill="#2b2428" stroke="#ff2b2b" stroke-width="1.4"/><circle cx="36" cy="191" r="5" fill="#ff5a31"/><circle cx="144" cy="191" r="5" fill="#ff5a31"/>
<path d="M90 36 L66 145 L80 180 L90 196 L100 180 L114 145 Z" fill="url(#metal)" stroke="#f1f1f1" stroke-width="2.3"/>
<path d="M76 108 L42 154 L60 172 L84 136 Z" fill="url(#metal2)" stroke="#ff2b2b" stroke-width="2"/>
<path d="M104 108 L138 154 L120 172 L96 136 Z" fill="url(#metal2)" stroke="#ff2b2b" stroke-width="2"/>

<path d="M79 74 C68 90 68 108 82 118 L98 118 C112 108 112 90 101 74 Z" fill="#05203f" stroke="#ff5a31" stroke-width="2"/>
<path d="M66 170 L42 206 L75 188 Z" fill="#ffca2a" opacity="0.95"/>
<path d="M114 170 L138 206 L105 188 Z" fill="#ffca2a" opacity="0.95"/>
<path d="M79 196 l-7 31 h14z" fill="#ff5a31" opacity="0.9"/><path d="M101 196 l-7 31 h14z" fill="#ff5a31" opacity="0.9"/>
<text x="90" y="18" text-anchor="middle" font-family="Arial" font-size="12" font-weight="900" fill="#f1f1f1">HAWK Lv.2</text>
<polygon points="20,203 23,211 31,211 25,216 28,224 20,219 12,224 15,216 9,211 17,211" fill="#ffd32a"/><polygon points="38,203 41,211 49,211 43,216 46,224 38,219 30,224 33,216 9,211 35,211" fill="#ffd32a"/>
</svg>