<svg xmlns="http://www.w3.org/2000/svg" width="180" height="220" viewBox="0 0 180 220">
<defs>
<linearGradient id="metal" x1="0" y1="0" x2="1" y2="1"><stop offset="0" stop-color="#f1f1f1"/><stop offset="0.45" stop-color="#a9adb6"/><stop offset="1" stop-color="#2b2428"/></linearGradient>
<linearGradient id="metal2" x1="0" y1="0" x2="0" y2="1"><stop offset="0" stop-color="#a9adb6"/><stop offset="1" stop-color="#2b2428"/></linearGradient>
<filter id="blur"><feGaussianBlur stdDeviation="4"/></filter>
</defs>
<rect width="180" height="220" fill="none"/>
<ellipse cx="90" cy="132" rx="66" ry="34" fill="#000" opacity="0.28" filter="url(#blur)"/>
<rect x="18" y="115" width="8" height="72" rx="4" fill="#2b2428" stroke="#ff2b2b" stroke-width="1.4"/><rect x="154" y="115" width="8" height="72" rx="4" fill="#2b2428" stroke="#ff2b2b" stroke-width="1.4"/><circle cx="22" cy="191" r="5" fill="#ff5a31"/><circle cx="158" cy="191" r="5" fill="#ff5a31"/><rect x="35" y="152" width="18" height="62" rx="8" fill="#2b2428" stroke="#a9adb6" stroke-width="2"/><rect x="127" y="152" width="18" height="62" rx="8" fill="#2b2428" stroke="#a9adb6" stroke-width="2"/><path d="M44 214 l-8 26 h16z" fill="#ff5a31" opacity="0.9"/><path d="M136 214 l-8 26 h16z" fill="#ff5a31" opacity="0.9"/><path d="M64 90 L20 56 L43 112 Z" fill="#2b2428" stroke="#ff2b2b" stroke-width="2"/><path d="M116 90 L160 56 L137 112 Z" fill="#2b2428" stroke="#ff2b2b" stroke-width="2"/>
<path d="M90 26 L66 145 L80 180 L90 196 L100 180 L114 145 Z" fill="url(#metal)" stroke="#f1f1f1" stroke-width="2.3"/>
<path d="M76 108 L28 154 L60 172 L84 136 Z" fill="url(#metal2)" stroke="#ff2b2b" stroke-width="2"/>
<path d="M104 108 L152 154 L120 172 L96 136 Z" fill="url(#metal2)" stroke="#ff2b2b" stroke-width="2"/>
<path d="M72 118 L-4 168 L60 148 Z" fill="url(#metal2)" stroke="#ff2b2b" stroke-width="1.7"/><path d="M108 118 L184 168 L120 148 Z" fill="url(#metal2)" stroke="#ff2b2b" stroke-width="1.7"/>
<path d="M79 74 C68 90 68 108 82 118 L98 118 C112 108 112 90 101 74 Z" fill="#05203f" stroke="#ff5a31" stroke-width="2"/>
<path d="M66 170 L42 206 L75 188 Z" fill="#ffca2a" opacity="0.95"/>
<path d="M114 170 L138 206 L105 188 Z" fill="#ffca2a" opacity="0.95"/>
<path d="M79 196 l-7 31 h14z" fill="#ff5a31" opacity="0.9"/><path d="M101 196 l-7 31 h14z" fill="#ff5a31" opacity="0.9"/>
<text x="90" y="18" text-anchor="middle" font-family="Arial" font-size="12" font-weight="900" fill="#f1f1f1">HAWK Lv.4</text>
<polygon points="20,203 23,211 31,211 25,216 28,224 20,219 12,224 15,216 9,211 17,211" fill="#ffd32a"/><polygon points="38,203 41,211 49,211 43,216 46,224 38,219 30,224 33,216 9,211 35,211" fill="#ffd32a"/><polygon points="56,203 59,211 67,211 61,216 64,224 56,219 48,224 51,216 9,211 53,211" fill="#ffd32a"/><polygon points="74,203 77,211 85,211 79,216 82,224 74,219 66,224 69,216 9,211 71,211" fill="#ffd32a"/>
</svg>