<svg xmlns="http://www.w3.org/2000/svg" viewBox="0 0 512 512">
<defs><filter id="glow"><feGaussianBlur stdDeviation="6" result="b"/><feMerge><feMergeNode in="b"/><feMergeNode in="SourceGraphic"/></feMerge></filter><linearGradient id="body" x1="0" x2="1"><stop offset="0" stop-color="#fff"/><stop offset=".55" stop-color="#6f767c"/><stop offset="1" stop-color="#777"/></linearGradient></defs>
<ellipse cx="256" cy="380" rx="127" ry="28" fill="#001022" opacity=".65"/>
<g transform="scale(1.12) translate(-27.428571428571445,-27.428571428571445)">
<polygon points="256,60 167,310 256,394 345,310" fill="#8a0e0e" stroke="#d49b2a" stroke-width="6"/>
<polygon points="256,50 210,300 256,420 302,300" fill="url(#body)" stroke="#15191e" stroke-width="7"/>
<polygon points="180,235 80,324 220,316" fill="#6f767c" stroke="#8a0e0e" stroke-width="7"/>
<polygon points="332,235 432,324 292,316" fill="#6f767c" stroke="#8a0e0e" stroke-width="7"/>
<ellipse cx="256" cy="230" rx="24" ry="44" fill="#ff5a1f" filter="url(#glow)"/>
<circle cx="256" cy="255" r="20" fill="#ff5a1f" filter="url(#glow)"/>
<rect x="196" y="102" width="12" height="76" rx="6" fill="#15191e" stroke="#d49b2a" stroke-width="3"/><rect x="223" y="102" width="12" height="76" rx="6" fill="#15191e" stroke="#d49b2a" stroke-width="3"/>
<path d="M222 392 L238 455 L256 402 L274 455 L290 392" fill="#ff5a1f" filter="url(#glow)" opacity=".9"/>
</g>
</svg>