<svg xmlns="http://www.w3.org/2000/svg" viewBox="0 0 512 512">
<defs><filter id="glow"><feGaussianBlur stdDeviation="6" result="b"/><feMerge><feMergeNode in="b"/><feMergeNode in="SourceGraphic"/></feMerge></filter><linearGradient id="body" x1="0" x2="1"><stop offset="0" stop-color="#fff"/><stop offset=".55" stop-color="#6f767c"/><stop offset="1" stop-color="#777"/></linearGradient></defs>
<ellipse cx="256" cy="380" rx="175" ry="28" fill="#001022" opacity=".65"/>
<g transform="scale(1.48) translate(-83.02702702702703,-83.02702702702703)">
<polygon points="256,60 131,310 256,415 381,310" fill="#8a0e0e" stroke="#d49b2a" stroke-width="6"/>
<polygon points="256,50 210,300 256,420 302,300" fill="url(#body)" stroke="#15191e" stroke-width="7"/>
<polygon points="180,235 80,300 220,316" fill="#6f767c" stroke="#8a0e0e" stroke-width="7"/>
<polygon points="332,235 432,300 292,316" fill="#6f767c" stroke="#8a0e0e" stroke-width="7"/>
<ellipse cx="256" cy="230" rx="24" ry="44" fill="#ff5a1f" filter="url(#glow)"/>
<circle cx="256" cy="255" r="29" fill="#ff5a1f" filter="url(#glow)"/>
<rect x="196" y="102" width="12" height="76" rx="6" fill="#15191e" stroke="#d49b2a" stroke-width="3"/><rect x="223" y="102" width="12" height="76" rx="6" fill="#15191e" stroke="#d49b2a" stroke-width="3"/><rect x="250" y="102" width="12" height="76" rx="6" fill="#15191e" stroke="#d49b2a" stroke-width="3"/><rect x="277" y="102" width="12" height="76" rx="6" fill="#15191e" stroke="#d49b2a" stroke-width="3"/><rect x="304" y="102" width="12" height="76" rx="6" fill="#15191e" stroke="#d49b2a" stroke-width="3"/><rect x="120" y="220" width="34" height="90" rx="10" fill="#15191e" stroke="#d49b2a" stroke-width="5" transform="rotate(-8 137 265)"/><rect x="358" y="220" width="34" height="90" rx="10" fill="#15191e" stroke="#d49b2a" stroke-width="5" transform="rotate(8 375 265)"/><polygon points="256,95 235,190 277,190" fill="#d49b2a" opacity=".9"/><rect x="230" y="155" width="52" height="170" rx="24" fill="#15191e" stroke="#8a0e0e" stroke-width="6" opacity=".8"/><path d="M70 280 C130 170 170 150 225 155" fill="none" stroke="#ff5a1f" stroke-width="14" opacity=".85"/><path d="M442 280 C382 170 342 150 287 155" fill="none" stroke="#ff5a1f" stroke-width="14" opacity=".85"/><path d="M78 300 C148 210 183 190 224 190" fill="none" stroke="#fff" stroke-width="4" opacity=".55"/><path d="M434 300 C364 210 329 190 288 190" fill="none" stroke="#fff" stroke-width="4" opacity=".55"/>
<path d="M222 392 L238 455 L256 402 L274 455 L290 392" fill="#ff5a1f" filter="url(#glow)" opacity=".9"/>
</g>
</svg>