<svg xmlns="http://www.w3.org/2000/svg" viewBox="0 0 512 512">
    <defs>
      <filter id="glow" x="-50%" y="-50%" width="200%" height="200%"><feGaussianBlur stdDeviation="5" result="b"/><feMerge><feMergeNode in="b"/><feMergeNode in="SourceGraphic"/></feMerge></filter>
      <linearGradient id="body" x1="0" x2="1"><stop offset="0" stop-color="#7f1017"/><stop offset="0.18" stop-color="#b7191d"/><stop offset="0.5" stop-color="#f5f1df"/><stop offset="0.82" stop-color="#b7191d"/><stop offset="1" stop-color="#7f1017"/></linearGradient>
      <linearGradient id="gold" x1="0" x2="1"><stop offset="0" stop-color="#8d5a13"/><stop offset="0.5" stop-color="#ffd96a"/><stop offset="1" stop-color="#8d5a13"/></linearGradient>
    </defs>
<rect width="512" height="512" fill="none"/>
<ellipse cx="256" cy="392" rx="145" ry="38" fill="#02101f" opacity="0.42"/>
<path d="M256 230 L181.0 298 L229.0 288 L217.0 230 L256 254 Z" fill="#b7191d" stroke="url(#gold)" stroke-width="5"/>
<path d="M256 230 L331.0 298 L283.0 288 L295.0 230 L256 254 Z" fill="#b7191d" stroke="url(#gold)" stroke-width="5"/>
<rect x="242" y="262" width="28" height="54" rx="10" fill="#2b313a" stroke="#d9a23a" stroke-width="3"/>
<path d="M246 314 Q256 342 266 314" fill="#23cfff" opacity="0.85" filter="url(#glow)"/>
<path d="M256 70 C279.4 90 295.0 155 295.0 220 L269.65 300 L256 326 L242.35 300 L217.0 220 C217.0 155 232.6 90 256 70 Z" fill="url(#body)" stroke="#d9a23a" stroke-width="5"/>
<ellipse cx="256" cy="148" rx="22" ry="38" fill="#111820" stroke="#ffd96a" stroke-width="4"/>
<circle cx="256" cy="215" r="8" fill="#31d7ff" filter="url(#glow)"/>
<path d="M256 88 L256 270" stroke="#ffd96a" stroke-width="5" opacity="0.85"/>
<rect x="251" y="120" width="10" height="90" rx="4" fill="#111820" stroke="#d9a23a" stroke-width="2"/>
</svg>