<svg xmlns="http://www.w3.org/2000/svg" viewBox="0 0 512 512">
    <defs>
      <filter id="glow" x="-50%" y="-50%" width="200%" height="200%"><feGaussianBlur stdDeviation="5" result="b"/><feMerge><feMergeNode in="b"/><feMergeNode in="SourceGraphic"/></feMerge></filter>
      <linearGradient id="body" x1="0" x2="1"><stop offset="0" stop-color="#7f1017"/><stop offset="0.18" stop-color="#b7191d"/><stop offset="0.5" stop-color="#f5f1df"/><stop offset="0.82" stop-color="#b7191d"/><stop offset="1" stop-color="#7f1017"/></linearGradient>
      <linearGradient id="gold" x1="0" x2="1"><stop offset="0" stop-color="#8d5a13"/><stop offset="0.5" stop-color="#ffd96a"/><stop offset="1" stop-color="#8d5a13"/></linearGradient>
    </defs>
<rect width="512" height="512" fill="none"/>
<ellipse cx="256" cy="392" rx="145" ry="38" fill="#02101f" opacity="0.42"/>
<path d="M256 212 L91.0 280 L208.0 270 L196.0 285 L256 309 Z" fill="#b7191d" stroke="url(#gold)" stroke-width="5"/>
<path d="M256 212 L421.0 280 L304.0 270 L316.0 285 L256 309 Z" fill="#b7191d" stroke="url(#gold)" stroke-width="5"/>
<path d="M121.0 270 L218.0 246" stroke="#ffd96a" stroke-width="7" stroke-linecap="round"/>
<path d="M391.0 270 L294.0 246" stroke="#ffd96a" stroke-width="7" stroke-linecap="round"/>
<rect x="200" y="317" width="28" height="54" rx="10" fill="#2b313a" stroke="#d9a23a" stroke-width="3"/>
<path d="M204 369 Q214 397 224 369" fill="#23cfff" opacity="0.85" filter="url(#glow)"/>
<rect x="242" y="317" width="28" height="54" rx="10" fill="#2b313a" stroke="#d9a23a" stroke-width="3"/>
<path d="M246 369 Q256 397 266 369" fill="#23cfff" opacity="0.85" filter="url(#glow)"/>
<rect x="284" y="317" width="28" height="54" rx="10" fill="#2b313a" stroke="#d9a23a" stroke-width="3"/>
<path d="M288 369 Q298 397 308 369" fill="#23cfff" opacity="0.85" filter="url(#glow)"/>
<path d="M256 55 C292.0 75 316.0 140 316.0 275 L277.0 355 L256 381 L235.0 355 L196.0 275 C196.0 140 220.0 75 256 55 Z" fill="url(#body)" stroke="#d9a23a" stroke-width="5"/>
<ellipse cx="256" cy="133" rx="22" ry="38" fill="#111820" stroke="#ffd96a" stroke-width="4"/>
<circle cx="256" cy="200" r="18" fill="#31d7ff" filter="url(#glow)"/>
<path d="M256 73 L256 325" stroke="#ffd96a" stroke-width="5" opacity="0.85"/>
<rect x="215" y="105" width="10" height="90" rx="4" fill="#111820" stroke="#d9a23a" stroke-width="2"/>
<rect x="241" y="105" width="10" height="90" rx="4" fill="#111820" stroke="#d9a23a" stroke-width="2"/>
<rect x="261" y="105" width="10" height="90" rx="4" fill="#111820" stroke="#d9a23a" stroke-width="2"/>
<rect x="287" y="105" width="10" height="90" rx="4" fill="#111820" stroke="#d9a23a" stroke-width="2"/>
<g transform="translate(163.6,264)"><rect x="-18" y="-30" width="36" height="80" rx="8" fill="#2b313a" stroke="#d9a23a" stroke-width="3"/><circle cx="0" cy="-16" r="6" fill="#7f1017"/><circle cx="0" cy="7" r="6" fill="#7f1017"/><circle cx="0" cy="30" r="6" fill="#7f1017"/></g>
<g transform="translate(348.4,264)"><rect x="-18" y="-30" width="36" height="80" rx="8" fill="#2b313a" stroke="#d9a23a" stroke-width="3"/><circle cx="0" cy="-16" r="6" fill="#7f1017"/><circle cx="0" cy="7" r="6" fill="#7f1017"/><circle cx="0" cy="30" r="6" fill="#7f1017"/></g>
</svg>