<svg xmlns="http://www.w3.org/2000/svg" viewBox="0 0 512 512">
    <defs>
      <filter id="glow" x="-50%" y="-50%" width="200%" height="200%"><feGaussianBlur stdDeviation="5" result="b"/><feMerge><feMergeNode in="b"/><feMergeNode in="SourceGraphic"/></feMerge></filter>
      <linearGradient id="body" x1="0" x2="1"><stop offset="0" stop-color="#7f1017"/><stop offset="0.18" stop-color="#b7191d"/><stop offset="0.5" stop-color="#f5f1df"/><stop offset="0.82" stop-color="#b7191d"/><stop offset="1" stop-color="#7f1017"/></linearGradient>
      <linearGradient id="gold" x1="0" x2="1"><stop offset="0" stop-color="#8d5a13"/><stop offset="0.5" stop-color="#ffd96a"/><stop offset="1" stop-color="#8d5a13"/></linearGradient>
    </defs>
<rect width="512" height="512" fill="none"/>
<ellipse cx="256" cy="392" rx="145" ry="38" fill="#02101f" opacity="0.42"/>
<path d="M256 238 L42 308 L176 320 Z" fill="#28d8ff" opacity="0.35" filter="url(#glow)"/>
<path d="M256 238 L470 308 L336 320 Z" fill="#28d8ff" opacity="0.35" filter="url(#glow)"/>
<path d="M256 205 L46.0 273 L200.5 263 L188.5 310 L256 334 Z" fill="#b7191d" stroke="url(#gold)" stroke-width="5"/>
<path d="M256 205 L466.0 273 L311.5 263 L323.5 310 L256 334 Z" fill="#b7191d" stroke="url(#gold)" stroke-width="5"/>
<path d="M76.0 263 L210.5 239" stroke="#ffd96a" stroke-width="7" stroke-linecap="round"/>
<path d="M436.0 263 L301.5 239" stroke="#ffd96a" stroke-width="7" stroke-linecap="round"/>
<rect x="182" y="342" width="28" height="54" rx="10" fill="#2b313a" stroke="#d9a23a" stroke-width="3"/>
<path d="M186 394 Q196 422 206 394" fill="#23cfff" opacity="0.85" filter="url(#glow)"/>
<rect x="218" y="342" width="28" height="54" rx="10" fill="#2b313a" stroke="#d9a23a" stroke-width="3"/>
<path d="M222 394 Q232 422 242 394" fill="#23cfff" opacity="0.85" filter="url(#glow)"/>
<rect x="266" y="342" width="28" height="54" rx="10" fill="#2b313a" stroke="#d9a23a" stroke-width="3"/>
<path d="M270 394 Q280 422 290 394" fill="#23cfff" opacity="0.85" filter="url(#glow)"/>
<rect x="302" y="342" width="28" height="54" rx="10" fill="#2b313a" stroke="#d9a23a" stroke-width="3"/>
<path d="M306 394 Q316 422 326 394" fill="#23cfff" opacity="0.85" filter="url(#glow)"/>
<path d="M256 50 C296.5 70 323.5 135 323.5 300 L279.625 380 L256 406 L232.375 380 L188.5 300 C188.5 135 215.5 70 256 50 Z" fill="url(#body)" stroke="#d9a23a" stroke-width="5"/>
<ellipse cx="256" cy="128" rx="22" ry="38" fill="#111820" stroke="#ffd96a" stroke-width="4"/>
<circle cx="256" cy="195" r="22" fill="#31d7ff" filter="url(#glow)"/>
<path d="M256 68 L256 350" stroke="#ffd96a" stroke-width="5" opacity="0.85"/>
<rect x="215" y="100" width="10" height="90" rx="4" fill="#111820" stroke="#d9a23a" stroke-width="2"/>
<rect x="241" y="100" width="10" height="90" rx="4" fill="#111820" stroke="#d9a23a" stroke-width="2"/>
<rect x="261" y="100" width="10" height="90" rx="4" fill="#111820" stroke="#d9a23a" stroke-width="2"/>
<rect x="287" y="100" width="10" height="90" rx="4" fill="#111820" stroke="#d9a23a" stroke-width="2"/>
<g transform="translate(138.39999999999998,257)"><rect x="-18" y="-30" width="36" height="80" rx="8" fill="#2b313a" stroke="#d9a23a" stroke-width="3"/><circle cx="0" cy="-16" r="6" fill="#7f1017"/><circle cx="0" cy="7" r="6" fill="#7f1017"/><circle cx="0" cy="30" r="6" fill="#7f1017"/></g>
<g transform="translate(373.6,257)"><rect x="-18" y="-30" width="36" height="80" rx="8" fill="#2b313a" stroke="#d9a23a" stroke-width="3"/><circle cx="0" cy="-16" r="6" fill="#7f1017"/><circle cx="0" cy="7" r="6" fill="#7f1017"/><circle cx="0" cy="30" r="6" fill="#7f1017"/></g>
<path d="M248 28 L264 28 L270 172 L242 172 Z" fill="#111820" stroke="#ffd96a" stroke-width="4"/>
<path d="M256 30 L256 162" stroke="#31d7ff" stroke-width="5" filter="url(#glow)"/>
</svg>