<svg xmlns="http://www.w3.org/2000/svg" viewBox="0 0 512 512">
<defs><filter id="glow"><feGaussianBlur stdDeviation="6" result="b"/><feMerge><feMergeNode in="b"/><feMergeNode in="SourceGraphic"/></feMerge></filter><linearGradient id="body" x1="0" x2="1"><stop offset="0" stop-color="#fff"/><stop offset=".55" stop-color="#f6f3e8"/><stop offset="1" stop-color="#777"/></linearGradient></defs>
<ellipse cx="256" cy="380" rx="159" ry="28" fill="#001022" opacity=".65"/>
<g transform="scale(1.3599999999999999) translate(-67.76470588235293,-67.76470588235293)">
<polygon points="256,60 143,310 256,408 369,310" fill="#b51e1e" stroke="#d4af37" stroke-width="6"/>
<polygon points="256,50 210,300 256,420 302,300" fill="url(#body)" stroke="#333942" stroke-width="7"/>
<polygon points="180,235 80,308 220,316" fill="#f6f3e8" stroke="#b51e1e" stroke-width="7"/>
<polygon points="332,235 432,308 292,316" fill="#f6f3e8" stroke="#b51e1e" stroke-width="7"/>
<ellipse cx="256" cy="230" rx="24" ry="44" fill="#2e87ff" filter="url(#glow)"/>
<circle cx="256" cy="255" r="26" fill="#2e87ff" filter="url(#glow)"/>
<rect x="196" y="102" width="12" height="76" rx="6" fill="#333942" stroke="#d4af37" stroke-width="3"/><rect x="223" y="102" width="12" height="76" rx="6" fill="#333942" stroke="#d4af37" stroke-width="3"/><rect x="250" y="102" width="12" height="76" rx="6" fill="#333942" stroke="#d4af37" stroke-width="3"/><rect x="277" y="102" width="12" height="76" rx="6" fill="#333942" stroke="#d4af37" stroke-width="3"/><rect x="120" y="220" width="34" height="90" rx="10" fill="#333942" stroke="#d4af37" stroke-width="5" transform="rotate(-8 137 265)"/><rect x="358" y="220" width="34" height="90" rx="10" fill="#333942" stroke="#d4af37" stroke-width="5" transform="rotate(8 375 265)"/><polygon points="256,95 235,190 277,190" fill="#d4af37" opacity=".9"/><rect x="230" y="155" width="52" height="170" rx="24" fill="#333942" stroke="#b51e1e" stroke-width="6" opacity=".8"/>
<path d="M222 392 L238 455 L256 402 L274 455 L290 392" fill="#2e87ff" filter="url(#glow)" opacity=".9"/>
</g>
</svg>