<svg xmlns="http://www.w3.org/2000/svg" viewBox="0 0 512 512">
    <defs>
      <filter id="glow" x="-50%" y="-50%" width="200%" height="200%"><feGaussianBlur stdDeviation="5" result="b"/><feMerge><feMergeNode in="b"/><feMergeNode in="SourceGraphic"/></feMerge></filter>
      <linearGradient id="body" x1="0" x2="1"><stop offset="0" stop-color="#7f1017"/><stop offset="0.18" stop-color="#b7191d"/><stop offset="0.5" stop-color="#f5f1df"/><stop offset="0.82" stop-color="#b7191d"/><stop offset="1" stop-color="#7f1017"/></linearGradient>
      <linearGradient id="gold" x1="0" x2="1"><stop offset="0" stop-color="#8d5a13"/><stop offset="0.5" stop-color="#ffd96a"/><stop offset="1" stop-color="#8d5a13"/></linearGradient>
    </defs>
<rect width="512" height="512" fill="none"/>
<ellipse cx="256" cy="392" rx="145" ry="38" fill="#02101f" opacity="0.42"/>
<path d="M256 225 L151.0 293 L223.0 283 L211.0 245 L256 269 Z" fill="#b7191d" stroke="url(#gold)" stroke-width="5"/>
<path d="M256 225 L361.0 293 L289.0 283 L301.0 245 L256 269 Z" fill="#b7191d" stroke="url(#gold)" stroke-width="5"/>
<path d="M181.0 283 L233.0 259" stroke="#ffd96a" stroke-width="7" stroke-linecap="round"/>
<path d="M331.0 283 L279.0 259" stroke="#ffd96a" stroke-width="7" stroke-linecap="round"/>
<rect x="242" y="277" width="28" height="54" rx="10" fill="#2b313a" stroke="#d9a23a" stroke-width="3"/>
<path d="M246 329 Q256 357 266 329" fill="#23cfff" opacity="0.85" filter="url(#glow)"/>
<path d="M256 65 C283.0 85 301.0 150 301.0 235 L271.75 315 L256 341 L240.25 315 L211.0 235 C211.0 150 229.0 85 256 65 Z" fill="url(#body)" stroke="#d9a23a" stroke-width="5"/>
<ellipse cx="256" cy="143" rx="22" ry="38" fill="#111820" stroke="#ffd96a" stroke-width="4"/>
<circle cx="256" cy="210" r="11" fill="#31d7ff" filter="url(#glow)"/>
<path d="M256 83 L256 285" stroke="#ffd96a" stroke-width="5" opacity="0.85"/>
<rect x="233" y="115" width="10" height="90" rx="4" fill="#111820" stroke="#d9a23a" stroke-width="2"/>
<rect x="269" y="115" width="10" height="90" rx="4" fill="#111820" stroke="#d9a23a" stroke-width="2"/>
</svg>